<?xml version="1.0" encoding="utf-8"?>
<!-- Generator: Adobe Illustrator 21.1.0, SVG Export Plug-In . SVG Version: 6.00 Build 0)  -->
<svg version="1.1" id="Capa_1" xmlns="http://www.w3.org/2000/svg" xmlns:xlink="http://www.w3.org/1999/xlink" x="0px" y="0px"
	 viewBox="0 0 512 512" style="enable-background:new 0 0 512 512;" xml:space="preserve">
<style type="text/css">
	.st0{fill:#DD2E44;}
	.st1{fill:#CCD6DD;}
	.st2{fill:#226699;}
	.st3{fill:#FFAC33;}
</style>
<g transform="matrix(1.25 0 0 -1.25 0 45)">
	<path class="st0" d="M352.7-60.7h-45.5l11.4,56.9h34.1V-60.7z"/>
	<g>
		<path class="st1" d="M375.5-60.7h-91l10.1,34.1h74.2L375.5-60.7z"/>
		<path class="st1" d="M94.9-26.6L91-38h11.4l-5.1-11.4H83.9l-4.2-11.4H91L68.3-129h324.6l5.2,11l-4.4,34.5h11.2l-2.1,11.4h-11.4
			l-4.6,22.8h-22.8H204.8l-11.4,22.8C193.4-26.6,94.9-26.6,94.9-26.6z"/>
		<path class="st1" d="M170.7-38h-45.5l11.4,34.1h34.1V-38z"/>
	</g>
	<g>
		<path class="st2" d="M102.4-38l-5.1-11.4h65.3L159.3-38H102.4z"/>
		<path class="st2" d="M99.6-60.7l-3.7-11.4h306.7l-2,11.4H99.6z"/>
		<path class="st2" d="M92.1-83.5l-3.9-11.4H395l-1.4,11.4H92.1z"/>
		<path class="st2" d="M84.8-106.2l-3.7-11.4h317.2l-1.4,11.4H84.8z"/>
	</g>
	<g>
		<path class="st2" d="M375.5-196.8c0,0,22.8,33.7,22.8,79.2H11.4c11.4-22.8,45.5-34.1,56.9-66.2
			C94.1-256.6,375.5-196.8,375.5-196.8"/>
		<path class="st1" d="M56.2-163.1h334.7c4.1,12.7,7.4,28.2,7.4,45.5H11.4C19.9-134.7,41.2-145.3,56.2-163.1"/>
		<g>
			<path class="st3" d="M182-129v-2.6c0-4.8,3.9-8.8,8.8-8.8h16.6c4.8,0,8.8,3.9,8.8,8.8v2.6H182z"/>
			<path class="st3" d="M216.2-129v-2.6c0-4.8,3.9-8.8,8.8-8.8h16.6c4.8,0,8.8,3.9,8.8,8.8v2.6H216.2z"/>
			<path class="st3" d="M250.3-129v-2.6c0-4.8,3.9-8.8,8.8-8.8h16.6c4.8,0,8.8,3.9,8.8,8.8v2.6H250.3z"/>
			<path class="st3" d="M295.8-129v-2.6c0-4.8,3.9-8.8,8.8-8.8h16.6c4.8,0,8.8,3.9,8.8,8.8v2.6H295.8z"/>
			<path class="st3" d="M330-129v-2.6c0-4.8,3.9-8.8,8.8-8.8h16.6c4.8,0,8.8,3.9,8.8,8.8v2.6H330z"/>
		</g>
	</g>
</g>
</svg>
